<svg width="1024" height="1024" viewBox="0 0 1024 1024" fill="none" xmlns="http://www.w3.org/2000/svg">
<g filter="url(#filter0_d_18_2)">
<path d="M224.009 512V366.545H323.298V395.097H259.165V424.926H316.977V453.548H259.165V512H224.009ZM375.731 366.545V512H341.001V366.545H375.731ZM428.589 513.847C421.629 513.847 415.45 512.687 410.053 510.366C404.702 507.999 400.464 504.448 397.339 499.713C394.262 494.931 392.723 488.941 392.723 481.744C392.723 475.684 393.788 470.57 395.919 466.403C398.05 462.237 400.985 458.851 404.726 456.247C408.466 453.643 412.775 451.678 417.652 450.352C422.529 448.979 427.737 448.056 433.277 447.582C439.48 447.014 444.475 446.422 448.263 445.807C452.051 445.144 454.797 444.221 456.501 443.037C458.253 441.806 459.129 440.078 459.129 437.852V437.497C459.129 433.851 457.875 431.034 455.365 429.045C452.856 427.057 449.47 426.062 445.209 426.062C440.616 426.062 436.923 427.057 434.129 429.045C431.336 431.034 429.56 433.78 428.803 437.284L396.771 436.148C397.718 429.519 400.157 423.6 404.087 418.392C408.064 413.136 413.509 409.017 420.422 406.034C427.382 403.004 435.739 401.489 445.493 401.489C452.453 401.489 458.869 402.317 464.74 403.974C470.611 405.584 475.725 407.952 480.081 411.077C484.437 414.154 487.799 417.942 490.166 422.44C492.581 426.938 493.788 432.076 493.788 437.852V512H461.118V496.801H460.266C458.324 500.494 455.839 503.619 452.808 506.176C449.825 508.733 446.298 510.651 442.226 511.929C438.201 513.207 433.656 513.847 428.589 513.847ZM439.314 491.119C443.054 491.119 446.416 490.362 449.399 488.847C452.429 487.331 454.844 485.248 456.643 482.597C458.443 479.898 459.342 476.773 459.342 473.222V462.852C458.348 463.373 457.141 463.847 455.72 464.273C454.347 464.699 452.832 465.101 451.175 465.48C449.518 465.859 447.813 466.19 446.061 466.474C444.309 466.759 442.628 467.019 441.018 467.256C437.751 467.777 434.958 468.581 432.638 469.67C430.365 470.759 428.613 472.18 427.382 473.932C426.198 475.636 425.607 477.672 425.607 480.04C425.607 483.638 426.885 486.384 429.442 488.278C432.046 490.172 435.337 491.119 439.314 491.119ZM515.024 512V402.909H548.05V422.938H549.257C551.53 416.309 555.365 411.077 560.763 407.241C566.161 403.406 572.6 401.489 580.081 401.489C587.657 401.489 594.143 403.43 599.541 407.312C604.939 411.195 608.372 416.403 609.839 422.938H610.976C613.012 416.451 616.989 411.266 622.908 407.384C628.826 403.454 635.81 401.489 643.859 401.489C654.181 401.489 662.562 404.803 669.001 411.432C675.441 418.013 678.661 427.057 678.661 438.562V512H643.93V446.517C643.93 441.072 642.534 436.929 639.74 434.088C636.947 431.2 633.324 429.756 628.874 429.756C624.091 429.756 620.327 431.318 617.581 434.443C614.882 437.521 613.533 441.664 613.533 446.872V512H580.152V446.162C580.152 441.096 578.779 437.095 576.033 434.159C573.286 431.223 569.664 429.756 565.166 429.756C562.136 429.756 559.461 430.49 557.141 431.957C554.821 433.378 552.998 435.414 551.672 438.065C550.393 440.717 549.754 443.842 549.754 447.44V512H515.024ZM751.175 514.06C739.764 514.06 729.915 511.811 721.629 507.312C713.391 502.767 707.046 496.304 702.595 487.923C698.192 479.495 695.99 469.481 695.99 457.881C695.99 446.612 698.215 436.763 702.666 428.335C707.117 419.86 713.391 413.278 721.487 408.591C729.584 403.856 739.125 401.489 750.109 401.489C757.875 401.489 764.977 402.696 771.416 405.111C777.856 407.526 783.419 411.1 788.107 415.835C792.794 420.57 796.44 426.418 799.044 433.378C801.648 440.291 802.95 448.222 802.95 457.17V465.835H708.135V445.665H770.635C770.588 441.972 769.712 438.681 768.007 435.793C766.303 432.904 763.959 430.655 760.976 429.045C758.04 427.388 754.655 426.56 750.82 426.56C746.937 426.56 743.457 427.436 740.379 429.188C737.302 430.892 734.863 433.236 733.064 436.219C731.265 439.154 730.318 442.492 730.223 446.233V466.759C730.223 471.209 731.099 475.116 732.851 478.477C734.603 481.792 737.089 484.372 740.308 486.219C743.528 488.065 747.363 488.989 751.814 488.989C754.892 488.989 757.685 488.562 760.195 487.71C762.704 486.858 764.858 485.603 766.658 483.946C768.457 482.289 769.806 480.253 770.706 477.838L802.595 478.761C801.269 485.911 798.357 492.137 793.859 497.44C789.409 502.696 783.561 506.792 776.317 509.727C769.072 512.616 760.692 514.06 751.175 514.06Z" fill="url(#paint0_linear_18_2)"/>
</g>
<g filter="url(#filter1_d_18_2)">
<path d="M132.009 666V520.545H167.165V578.926H224.48V520.545H259.565V666H224.48V607.548H167.165V666H132.009ZM332.541 668.06C321.083 668.06 311.234 665.716 302.996 661.028C294.804 656.294 288.483 649.712 284.033 641.284C279.629 632.809 277.428 622.984 277.428 611.81C277.428 600.588 279.629 590.763 284.033 582.335C288.483 573.86 294.804 567.278 302.996 562.591C311.234 557.856 321.083 555.489 332.541 555.489C344 555.489 353.824 557.856 362.016 562.591C370.254 567.278 376.575 573.86 380.979 582.335C385.429 590.763 387.655 600.588 387.655 611.81C387.655 622.984 385.429 632.809 380.979 641.284C376.575 649.712 370.254 656.294 362.016 661.028C353.824 665.716 344 668.06 332.541 668.06ZM332.754 641.852C336.921 641.852 340.448 640.574 343.337 638.017C346.225 635.46 348.427 631.909 349.942 627.364C351.504 622.818 352.286 617.562 352.286 611.597C352.286 605.536 351.504 600.233 349.942 595.688C348.427 591.142 346.225 587.591 343.337 585.034C340.448 582.477 336.921 581.199 332.754 581.199C328.446 581.199 324.8 582.477 321.817 585.034C318.881 587.591 316.632 591.142 315.07 595.688C313.554 600.233 312.797 605.536 312.797 611.597C312.797 617.562 313.554 622.818 315.07 627.364C316.632 631.909 318.881 635.46 321.817 638.017C324.8 640.574 328.446 641.852 332.754 641.852ZM500.688 590.219L468.798 591.071C468.467 588.798 467.567 586.786 466.099 585.034C464.632 583.235 462.714 581.838 460.347 580.844C458.027 579.802 455.328 579.281 452.25 579.281C448.225 579.281 444.793 580.086 441.952 581.696C439.158 583.306 437.785 585.484 437.832 588.23C437.785 590.361 438.637 592.207 440.389 593.77C442.188 595.332 445.384 596.587 449.977 597.534L471 601.511C481.89 603.595 489.987 607.051 495.29 611.881C500.64 616.71 503.339 623.102 503.386 631.057C503.339 638.538 501.114 645.048 496.71 650.588C492.354 656.128 486.388 660.437 478.812 663.514C471.237 666.545 462.572 668.06 452.818 668.06C437.241 668.06 424.954 664.864 415.957 658.472C407.009 652.032 401.895 643.415 400.616 632.619L434.92 631.767C435.678 635.744 437.643 638.775 440.815 640.858C443.988 642.941 448.036 643.983 452.96 643.983C457.411 643.983 461.033 643.154 463.827 641.497C466.62 639.84 468.041 637.638 468.088 634.892C468.041 632.43 466.952 630.465 464.821 628.997C462.69 627.482 459.352 626.298 454.807 625.446L435.773 621.824C424.835 619.835 416.691 616.166 411.341 610.815C405.991 605.418 403.339 598.552 403.386 590.219C403.339 582.927 405.28 576.701 409.21 571.54C413.14 566.331 418.727 562.354 425.972 559.608C433.216 556.862 441.762 555.489 451.611 555.489C466.384 555.489 478.031 558.59 486.554 564.793C495.077 570.948 499.788 579.423 500.688 590.219ZM582.062 556.909V582.477H513.241V556.909H582.062ZM527.658 530.773H562.388V631.696C562.388 633.827 562.72 635.555 563.383 636.881C564.093 638.159 565.111 639.082 566.437 639.651C567.763 640.171 569.349 640.432 571.195 640.432C572.521 640.432 573.918 640.313 575.386 640.077C576.901 639.793 578.037 639.556 578.795 639.366L584.05 664.438C582.393 664.911 580.049 665.503 577.019 666.213C574.036 666.923 570.461 667.373 566.295 667.562C558.151 667.941 551.167 666.994 545.343 664.722C539.567 662.402 535.139 658.803 532.062 653.926C529.031 649.049 527.564 642.918 527.658 635.531V530.773ZM599.782 666V556.909H634.512V666H599.782ZM617.183 544.196C612.306 544.196 608.115 542.586 604.612 539.366C601.108 536.099 599.356 532.17 599.356 527.577C599.356 523.031 601.108 519.149 604.612 515.929C608.115 512.662 612.306 511.028 617.183 511.028C622.107 511.028 626.297 512.662 629.754 515.929C633.257 519.149 635.009 523.031 635.009 527.577C635.009 532.17 633.257 536.099 629.754 539.366C626.297 542.586 622.107 544.196 617.183 544.196ZM691.348 603.784V666H656.618V556.909H689.643V576.938H690.851C693.266 570.261 697.385 565.029 703.209 561.241C709.033 557.406 715.969 555.489 724.018 555.489C731.689 555.489 738.341 557.217 743.976 560.673C749.658 564.082 754.061 568.865 757.186 575.02C760.358 581.128 761.921 588.277 761.874 596.469V666H727.143V603.287C727.191 597.226 725.652 592.491 722.527 589.082C719.449 585.673 715.164 583.969 709.672 583.969C706.026 583.969 702.806 584.774 700.013 586.384C697.267 587.946 695.136 590.195 693.621 593.131C692.153 596.066 691.395 599.617 691.348 603.784ZM834.228 709.182C823.859 709.182 814.981 707.738 807.594 704.849C800.208 701.961 794.408 698.008 790.194 692.989C785.98 687.97 783.447 682.288 782.594 675.943L815.478 674.097C816.094 676.322 817.23 678.263 818.887 679.92C820.592 681.578 822.793 682.856 825.492 683.756C828.238 684.655 831.458 685.105 835.151 685.105C840.975 685.105 845.781 683.685 849.569 680.844C853.404 678.05 855.322 673.15 855.322 666.142V646.966H854.114C852.741 650.328 850.658 653.334 847.864 655.986C845.071 658.637 841.591 660.721 837.424 662.236C833.305 663.751 828.57 664.509 823.219 664.509C815.265 664.509 807.973 662.662 801.344 658.969C794.763 655.228 789.484 649.452 785.506 641.639C781.576 633.779 779.612 623.67 779.612 611.312C779.612 598.576 781.647 588.088 785.719 579.849C789.791 571.563 795.118 565.432 801.7 561.455C808.328 557.477 815.454 555.489 823.077 555.489C828.807 555.489 833.707 556.483 837.779 558.472C841.898 560.413 845.284 562.922 847.935 566C850.587 569.078 852.599 572.274 853.972 575.588H854.967V556.909H889.555V666.426C889.555 675.659 887.235 683.448 882.594 689.793C877.954 696.137 871.468 700.943 863.134 704.21C854.801 707.525 845.165 709.182 834.228 709.182ZM835.293 639.224C839.507 639.224 843.106 638.112 846.089 635.886C849.072 633.661 851.368 630.465 852.978 626.298C854.588 622.132 855.393 617.136 855.393 611.312C855.393 605.394 854.588 600.304 852.978 596.043C851.415 591.734 849.119 588.42 846.089 586.099C843.106 583.779 839.507 582.619 835.293 582.619C830.985 582.619 827.339 583.803 824.356 586.17C821.373 588.538 819.1 591.876 817.538 596.185C816.022 600.446 815.265 605.489 815.265 611.312C815.265 617.136 816.046 622.132 817.609 626.298C819.171 630.465 821.42 633.661 824.356 635.886C827.339 638.112 830.985 639.224 835.293 639.224Z" fill="white"/>
</g>
<defs>
<filter id="filter0_d_18_2" x="184.009" y="332.545" width="670.942" height="239.514" filterUnits="userSpaceOnUse" color-interpolation-filters="sRGB">
<feFlood flood-opacity="0" result="BackgroundImageFix"/>
<feColorMatrix in="SourceAlpha" type="matrix" values="0 0 0 0 0 0 0 0 0 0 0 0 0 0 0 0 0 0 127 0" result="hardAlpha"/>
<feOffset dx="6" dy="12"/>
<feGaussianBlur stdDeviation="23"/>
<feComposite in2="hardAlpha" operator="out"/>
<feColorMatrix type="matrix" values="0 0 0 0 0 0 0 0 0 0 0 0 0 0 0 0 0 0 0.25 0"/>
<feBlend mode="normal" in2="BackgroundImageFix" result="effect1_dropShadow_18_2"/>
<feBlend mode="normal" in="SourceGraphic" in2="effect1_dropShadow_18_2" result="shape"/>
</filter>
<filter id="filter1_d_18_2" x="92.0085" y="477.028" width="849.546" height="290.153" filterUnits="userSpaceOnUse" color-interpolation-filters="sRGB">
<feFlood flood-opacity="0" result="BackgroundImageFix"/>
<feColorMatrix in="SourceAlpha" type="matrix" values="0 0 0 0 0 0 0 0 0 0 0 0 0 0 0 0 0 0 127 0" result="hardAlpha"/>
<feOffset dx="6" dy="12"/>
<feGaussianBlur stdDeviation="23"/>
<feComposite in2="hardAlpha" operator="out"/>
<feColorMatrix type="matrix" values="0 0 0 0 0 0 0 0 0 0 0 0 0 0 0 0 0 0 0.25 0"/>
<feBlend mode="normal" in2="BackgroundImageFix" result="effect1_dropShadow_18_2"/>
<feBlend mode="normal" in="SourceGraphic" in2="effect1_dropShadow_18_2" result="shape"/>
</filter>
<linearGradient id="paint0_linear_18_2" x1="219.245" y1="432.763" x2="810" y2="440.266" gradientUnits="userSpaceOnUse">
<stop stop-color="#FF5F05"/>
<stop offset="1" stop-color="#F80000"/>
</linearGradient>
</defs>
</svg>
